<?xml version="1.0" encoding="utf-8"?>
<!-- Generator: Adobe Adobe Illustrator 24.2.0, SVG Export Plug-In . SVG Version: 6.00 Build 0)  -->
<svg version="1.1" id="Layer_1" xmlns="http://www.w3.org/2000/svg" xmlns:xlink="http://www.w3.org/1999/xlink" x="0px" y="0px"
	 width="500px" height="500px" viewBox="0 0 500 500" style="enable-background:new 0 0 500 500;" xml:space="preserve">
<style type="text/css">
	.st0{clip-path:url(#SVGID_2_);}
	.st1{fill-rule:evenodd;clip-rule:evenodd;fill:#1F2533;}
	.st2{clip-path:url(#SVGID_4_);}
	.st3{fill:#4CCBEB;}
	.st4{clip-path:url(#SVGID_6_);}
	.st5{fill-rule:evenodd;clip-rule:evenodd;fill:#4CCBEB;}
	.st6{clip-path:url(#SVGID_8_);}
	.st7{clip-path:url(#SVGID_10_);}
	.st8{fill:#1F2533;}
</style>
<g>
	<defs>
		<rect id="SVGID_1_" x="362.1" y="272" width="76.3" height="90.3"/>
	</defs>
	<clipPath id="SVGID_2_">
		<use xlink:href="#SVGID_1_"  style="overflow:visible;"/>
	</clipPath>
	<g class="st0">
		<path class="st1" d="M383.6,273.3c27.9,35.5,19,75.7-21.3,89.1c42.3-2.5,67.6-29.6,76-81.5C427.2,296,409,293.5,383.6,273.3z"/>
	</g>
</g>
<g>
	<defs>
		<rect id="SVGID_3_" x="408" y="261.5" width="21.3" height="21.2"/>
	</defs>
	<clipPath id="SVGID_4_">
		<use xlink:href="#SVGID_3_"  style="overflow:visible;"/>
	</clipPath>
	<g class="st2">
		<path class="st1" d="M418.5,282c5.6,0,10.2-4.6,10.2-10.3c0-5.7-4.6-10.3-10.2-10.3c-5.6,0-10.2,4.6-10.2,10.3
			C408.3,277.4,412.9,282,418.5,282z"/>
	</g>
</g>
<g>
	<g transform="translate(39.856024, 256.973832)">
		<g>
			<path class="st3" d="M23.5,85.7h50.4v-20H46.3V0.1H23.5V85.7z"/>
		</g>
	</g>
</g>
<g>
	<g transform="translate(83.281497, 256.973832)">
		<g>
			<path class="st3" d="M46.7,21.2c2.3,0,4.4-0.6,6.2-1.7c1.9-1.1,3.4-2.6,4.5-4.5c1.1-1.9,1.7-4,1.7-6.3c0-2.3-0.6-4.4-1.7-6.2
				c-1.1-1.9-2.6-3.4-4.5-4.5c-1.9-1.1-4-1.7-6.2-1.7c-2.3,0-4.4,0.6-6.3,1.7c-1.9,1.1-3.4,2.6-4.5,4.5c-1.1,1.9-1.7,4-1.7,6.2
				c0,2.3,0.6,4.4,1.7,6.3c1.1,1.9,2.6,3.4,4.5,4.5C42.3,20.7,44.4,21.2,46.7,21.2z M35.9,85.7h21.6V32.6H35.9V85.7z"/>
		</g>
	</g>
</g>
<g>
	<g transform="translate(110.10648, 256.973832)">
		<g>
			<path class="st3" d="M82.8,87.3c4.7,0,9-1.2,13-3.6c3.9-2.4,7.1-5.7,9.5-10c2.4-4.2,3.5-9.1,3.5-14.7c0-5.4-1.1-10.2-3.4-14.4
				c-2.3-4.2-5.4-7.6-9.4-10.1c-4-2.5-8.6-3.7-13.7-3.7c-3,0-5.9,0.4-8.7,1.3c-2.7,0.9-5.1,2.1-7.2,3.8V-3.5H44.8v89.2h21.6v-4.1
				C71.4,85.4,76.9,87.3,82.8,87.3z M76.1,69.1c-2.9,0-5.3-0.9-7.2-2.8c-1.9-1.9-2.9-4.2-2.9-7.1c0-2.9,1-5.3,2.9-7.2
				c1.9-1.9,4.3-2.9,7.2-2.9c2.8,0,5.2,1,7.1,2.9c1.9,1.9,2.9,4.3,2.9,7.2c0,2.8-0.9,5.2-2.8,7C81.4,68.2,79,69.1,76.1,69.1z"/>
		</g>
	</g>
</g>
<g>
	<g transform="translate(165.506066, 256.973832)">
		<g>
			<path class="st3" d="M89.3,87.3c5.8,0,11.1-1.2,15.8-3.8c4.7-2.5,8.3-6,10.8-10.4l-15.5-7.7c-1.9,1.8-3.5,3.1-4.9,3.8
				c-1.4,0.7-3.1,1-5,1c-3.1,0-5.6-0.7-7.4-2.2c-1.8-1.5-2.6-3.5-2.6-6h36c0.1-1.3,0.2-2.2,0.2-2.6c0-0.4,0-0.8,0-1.3
				c0-5.4-1.2-10.2-3.5-14.3c-2.3-4.1-5.6-7.3-9.8-9.6c-4.2-2.3-9-3.5-14.5-3.5c-5.8,0-11,1.2-15.6,3.7c-4.6,2.5-8.3,5.8-11,10.1
				c-2.7,4.2-4,9-4,14.3c0,5.4,1.4,10.2,4.1,14.4c2.7,4.3,6.4,7.6,11.1,10.1C78.1,86.1,83.4,87.3,89.3,87.3z M81.1,51.9
				c0.1-4.1,2.4-6.2,7.1-6.2c4.2,0,6.7,2.1,7.4,6.2H81.1z"/>
		</g>
	</g>
</g>
<g>
	<g transform="translate(213.091375, 256.973832)">
		<g>
			<path class="st3" d="M79.2,85.7h21.6v-26c0-1.8,0.5-3.4,1.5-4.9c1-1.5,2.3-2.8,4-3.7c1.7-1,3.4-1.4,5.2-1.4c1.4,0,3,0.3,4.8,0.9
				c1.8,0.6,3.3,1.4,4.5,2.3l9-18.1c-1.5-1.1-3.4-2-5.6-2.7c-2.3-0.7-4.4-1-6.5-1c-3.1,0-6.2,0.8-9.1,2.4c-3,1.6-5.5,3.8-7.8,6.7
				v-7.5H79.2V85.7z"/>
		</g>
	</g>
</g>
<g>
	<g transform="translate(253.445564, 256.973832)">
		<g>
			<path class="st3" d="M114.4,87.3c2.5,0,5.1-0.3,7.8-1c2.7-0.6,5.1-1.5,7.3-2.7l-5.4-17.3c-1.5,1.1-2.9,1.7-4.3,1.7
				c-2.2,0-3.4-1.4-3.4-4.1V48.9H127V32.6h-10.6V12.7H94.9v19.9h-8.3v16.4h8.3v16.6c0,6.8,1.7,12.2,5.1,16
				C103.4,85.4,108.2,87.3,114.4,87.3z"/>
		</g>
	</g>
</g>
<g>
	<defs>
		<rect id="SVGID_5_" x="168.1" y="170.7" width="41.2" height="22.7"/>
	</defs>
	<clipPath id="SVGID_6_">
		<use xlink:href="#SVGID_5_"  style="overflow:visible;"/>
	</clipPath>
	<g class="st4">
		<path class="st5" d="M177,171l-8.8,14.4c16.5-2.6,29.9-0.4,40.2,6.7C200.9,182.1,190.4,175.1,177,171L177,171z"/>
	</g>
</g>
<path class="st1" d="M169.7,163.4c19.2,2.6,34.1,12,44.7,28.2c-2.6-16.4-11-29.4-25-39.2L169.7,163.4z"/>
<path class="st5" d="M179.4,136.5c26.2,16.8,40.3,40,42.5,69.5c4.4-23.3-2.2-44.1-19.6-62.5c14.6-4.2,25.8-14.1,33.7-29.6
	c26,45.2,17.7,81.2-24.8,108.3c53.9-18.6,62-75.4,24.3-125.9C227.2,124.2,208.5,137.7,179.4,136.5L179.4,136.5z"/>
<g>
	<defs>
		<rect id="SVGID_7_" x="209.3" y="89.3" width="122.8" height="142.8"/>
	</defs>
	<clipPath id="SVGID_8_">
		<use xlink:href="#SVGID_7_"  style="overflow:visible;"/>
	</clipPath>
	<g class="st6">
		<path class="st1" d="M244,89.9c44.9,56.7,30.6,120.9-34.3,142.2c68-3.9,108.8-47.3,122.3-130.1C314.2,126.2,284.8,122.2,244,89.9z
			"/>
	</g>
</g>
<g>
	<defs>
		<rect id="SVGID_9_" x="282.7" y="71.1" width="34.7" height="32.9"/>
	</defs>
	<clipPath id="SVGID_10_">
		<use xlink:href="#SVGID_9_"  style="overflow:visible;"/>
	</clipPath>
	<g class="st7">
		<path class="st1" d="M300.1,103.8c9,0,16.4-7.4,16.4-16.4c0-9-7.4-16.4-16.4-16.4c-9,0-16.4,7.4-16.4,16.4
			C283.6,96.5,291,103.8,300.1,103.8z"/>
	</g>
</g>
<path class="st5" d="M236.6,156.9c0.5,0.9,0.2,1.9-0.9,2.8l-2.1-3.6c0.9-0.2,1.5-0.2,1.9,0C236,156.1,236.4,156.4,236.6,156.9
	L236.6,156.9z M228.6,152.9c-0.9,0.1-1.5,0.1-1.9,0c-0.4-0.2-0.7-0.4-1-0.8c-0.2-0.4-0.3-0.9-0.2-1.3c0.1-0.5,0.5-0.9,1-1.4
	L228.6,152.9L228.6,152.9z M240.3,154.5c-0.8-1.5-2-2.4-3.4-2.7c-1.4-0.4-3.2-0.2-5.5,0.4l-2.3-3.9c0.6-0.2,1.3-0.3,2-0.3
	c0.7,0,1.4,0,2.1,0l0-4c-1-0.1-2-0.1-3,0.1c-1,0.1-2,0.4-3,0.8l-0.9-1.6l-2.7,1.6l0.9,1.5c-0.8,0.6-1.4,1.2-1.9,1.8
	c-0.5,0.7-0.9,1.3-1.1,2.1c-0.2,0.7-0.3,1.4-0.2,2.2c0.1,0.7,0.3,1.5,0.7,2.2c0.4,0.8,1,1.4,1.5,1.8c0.6,0.4,1.2,0.7,1.9,0.9
	c0.7,0.2,1.5,0.2,2.4,0.1c0.9-0.1,1.9-0.3,3-0.6l2.4,4.1c-0.9,0.3-1.7,0.5-2.6,0.5c-0.9,0-1.8,0-2.8-0.1l-0.3,4.1
	c1.2,0.2,2.5,0.1,3.8,0c1.3-0.2,2.6-0.5,3.8-1l1.5,2.6l2.7-1.6l-1.5-2.6c0.8-0.6,1.4-1.2,2-1.9c0.5-0.7,0.9-1.4,1.1-2.1
	c0.2-0.7,0.3-1.4,0.2-2.2C241,155.9,240.7,155.2,240.3,154.5L240.3,154.5z"/>
<g>
	<g transform="translate(47.313114, 291.993468)">
		<g>
			<path class="st8" d="M18.6,97.3h4.1v-8.6h7v-3.6h-7v-5h7.5v-3.6H18.6V97.3z"/>
		</g>
	</g>
</g>
<g>
	<g transform="translate(60.859763, 291.993468)">
		<g>
			<path class="st8" d="M23.1,97.3h4.1V76.7h-4.1V97.3z"/>
		</g>
	</g>
</g>
<g>
	<g transform="translate(69.903564, 291.993468)">
		<g>
			<path class="st8" d="M26.1,97.3h4.1V83.4l8.9,13.9h4V76.7h-4v13.9l-8.9-13.9h-4.1V97.3z"/>
		</g>
	</g>
</g>
<g>
	<g transform="translate(88.656632, 291.993468)">
		<g>
			<path class="st8" d="M29.8,97.3h4.4l1.8-4.7H44l1.8,4.7h4.4l-8.3-20.6h-3.8L29.8,97.3z M37.3,89.1l2.7-6.9l2.7,6.9H37.3z"/>
		</g>
	</g>
</g>
<g>
	<g transform="translate(106.058855, 291.993468)">
		<g>
			<path class="st8" d="M38.2,97.3h4.1V83.4l8.9,13.9h4V76.7h-4v13.9l-8.9-13.9h-4.1V97.3z"/>
		</g>
	</g>
</g>
<g>
	<g transform="translate(124.811926, 291.993468)">
		<g>
			<path class="st8" d="M53.7,97.7c1.3,0,2.5-0.2,3.6-0.5c1.2-0.4,2.1-0.8,2.9-1.4l-1.8-3.5c-0.6,0.4-1.2,0.8-2,1
				c-0.8,0.2-1.6,0.4-2.5,0.4c-1.4,0-2.6-0.3-3.7-0.9c-1.1-0.6-1.9-1.4-2.6-2.4c-0.6-1-0.9-2.2-0.9-3.4c0-1.3,0.3-2.4,0.9-3.4
				c0.6-1,1.5-1.8,2.6-2.4c1.1-0.6,2.3-0.9,3.7-0.9c0.9,0,1.7,0.1,2.5,0.4c0.8,0.2,1.5,0.6,2,1l1.8-3.4c-0.8-0.6-1.8-1.1-2.9-1.4
				c-1.2-0.4-2.4-0.5-3.6-0.5c-1.6,0-3,0.3-4.4,0.8c-1.4,0.5-2.6,1.3-3.6,2.3c-1,1-1.8,2.1-2.4,3.4c-0.6,1.3-0.9,2.7-0.9,4.2
				c0,1.5,0.3,2.9,0.9,4.2c0.6,1.3,1.4,2.4,2.4,3.4c1,1,2.2,1.7,3.6,2.3C50.7,97.5,52.2,97.7,53.7,97.7z"/>
		</g>
	</g>
</g>
<g>
	<g transform="translate(140.938338, 291.993468)">
		<g>
			<path class="st8" d="M49.8,97.3h4.1V76.7h-4.1V97.3z"/>
		</g>
	</g>
</g>
<g>
	<g transform="translate(149.98214, 291.993468)">
		<g>
			<path class="st8" d="M50.2,97.3h4.4l1.8-4.7h8.1l1.8,4.7h4.4l-8.3-20.6h-3.8L50.2,97.3z M57.7,89.1l2.7-6.9l2.7,6.9H57.7z"/>
		</g>
	</g>
</g>
<g>
	<g transform="translate(167.384357, 291.993468)">
		<g>
			<path class="st8" d="M58.6,97.3h11.5v-3.6h-7.5V76.7h-4.1V97.3z"/>
		</g>
	</g>
</g>
<g>
	<g transform="translate(187.113615, 291.993468)">
		<g>
			<path class="st8" d="M65.2,97.3h11.5v-3.6h-7.4v-5h7.1v-3.6h-7.1v-5h7.4v-3.6H65.2V97.3z"/>
		</g>
	</g>
</g>
<g>
	<g transform="translate(201.223115, 291.993468)">
		<g>
			<path class="st8" d="M69.9,97.3h5.7c1.5,0,2.8-0.3,4.1-0.8c1.3-0.5,2.4-1.3,3.3-2.2c0.9-0.9,1.7-2,2.2-3.3c0.5-1.2,0.8-2.6,0.8-4
				c0-1.5-0.3-2.8-0.8-4.1c-0.5-1.2-1.3-2.3-2.2-3.3c-0.9-0.9-2.1-1.7-3.3-2.2c-1.2-0.5-2.6-0.8-4.1-0.8h-5.7V97.3z M73.9,93.7V80.3
				h1.2c1.2,0,2.4,0.3,3.3,0.9c1,0.6,1.8,1.4,2.3,2.4c0.6,1,0.9,2.2,0.9,3.4c0,1.3-0.3,2.4-0.9,3.4c-0.6,1-1.3,1.8-2.3,2.4
				c-1,0.6-2.1,0.9-3.3,0.9H73.9z"/>
		</g>
	</g>
</g>
<g>
	<g transform="translate(218.128143, 291.993468)">
		<g>
			<path class="st8" d="M83,97.7c2.6,0,4.6-0.6,5.9-1.9c1.3-1.3,2-3.2,2-5.8V76.7h-4.1v12.2c0,1.7-0.3,3-0.9,3.8
				c-0.6,0.8-1.6,1.1-2.9,1.1c-1.3,0-2.3-0.4-2.9-1.1c-0.6-0.8-0.9-2-0.9-3.8V76.7h-4.1V90c0,2.5,0.7,4.5,2,5.8
				C78.5,97.1,80.4,97.7,83,97.7z"/>
		</g>
	</g>
</g>
<g>
	<g transform="translate(235.399027, 291.993468)">
		<g>
			<path class="st8" d="M90.6,97.7c1.3,0,2.5-0.2,3.6-0.5c1.2-0.4,2.1-0.8,2.9-1.4l-1.8-3.5c-0.6,0.4-1.2,0.8-2,1
				c-0.8,0.2-1.6,0.4-2.5,0.4c-1.4,0-2.6-0.3-3.7-0.9c-1.1-0.6-1.9-1.4-2.6-2.4c-0.6-1-0.9-2.2-0.9-3.4c0-1.3,0.3-2.4,0.9-3.4
				c0.6-1,1.5-1.8,2.6-2.4c1.1-0.6,2.3-0.9,3.7-0.9c0.9,0,1.7,0.1,2.5,0.4c0.8,0.2,1.5,0.6,2,1l1.8-3.4c-0.8-0.6-1.8-1.1-2.9-1.4
				c-1.2-0.4-2.4-0.5-3.6-0.5c-1.6,0-3,0.3-4.4,0.8c-1.4,0.5-2.6,1.3-3.6,2.3c-1,1-1.8,2.1-2.4,3.4c-0.6,1.3-0.9,2.7-0.9,4.2
				c0,1.5,0.3,2.9,0.9,4.2c0.6,1.3,1.4,2.4,2.4,3.4c1,1,2.2,1.7,3.6,2.3C87.5,97.5,89,97.7,90.6,97.7z"/>
		</g>
	</g>
</g>
<g>
	<g transform="translate(251.525434, 291.993468)">
		<g>
			<path class="st8" d="M84.1,97.3h4.4l1.8-4.7h8.1l1.8,4.7h4.4l-8.3-20.6h-3.8L84.1,97.3z M91.6,89.1l2.7-6.9l2.7,6.9H91.6z"/>
		</g>
	</g>
</g>
<g>
	<g transform="translate(268.927662, 291.993468)">
		<g>
			<path class="st8" d="M95.4,97.3h4V80.3h5.2v-3.6H90.1v3.6h5.2V97.3z"/>
		</g>
	</g>
</g>
<g>
	<g transform="translate(282.314845, 291.993468)">
		<g>
			<path class="st8" d="M96.9,97.3h4.1V76.7h-4.1V97.3z"/>
		</g>
	</g>
</g>
<g>
	<g transform="translate(291.358653, 291.993468)">
		<g>
			<path class="st8" d="M108.8,97.7c1.4,0,2.8-0.3,4-0.8c1.3-0.6,2.4-1.3,3.3-2.3c1-1,1.7-2.1,2.2-3.4c0.5-1.3,0.8-2.7,0.8-4.2
				c0-1.5-0.3-2.9-0.8-4.2c-0.5-1.3-1.3-2.4-2.2-3.4c-0.9-1-2.1-1.8-3.3-2.3c-1.2-0.6-2.6-0.8-4-0.8c-1.4,0-2.8,0.3-4.1,0.8
				c-1.3,0.5-2.4,1.3-3.3,2.3c-0.9,1-1.7,2.1-2.2,3.4c-0.5,1.3-0.8,2.7-0.8,4.2c0,1.5,0.3,2.9,0.8,4.2c0.5,1.3,1.3,2.4,2.2,3.4
				c0.9,1,2,1.7,3.3,2.3C106,97.5,107.4,97.7,108.8,97.7z M108.8,93.8c-1.2,0-2.2-0.3-3.1-0.9s-1.6-1.4-2.1-2.4
				c-0.5-1-0.8-2.2-0.8-3.5c0-1.3,0.3-2.5,0.8-3.5c0.5-1,1.2-1.8,2.1-2.4c0.9-0.6,2-0.9,3.1-0.9c1.2,0,2.2,0.3,3.1,0.9
				c0.9,0.6,1.6,1.4,2.1,2.4c0.5,1,0.8,2.2,0.8,3.5c0,1.3-0.3,2.5-0.8,3.5c-0.5,1-1.2,1.8-2.1,2.4C111,93.5,110,93.8,108.8,93.8z"/>
		</g>
	</g>
</g>
<g>
	<g transform="translate(310.712098, 291.993468)">
		<g>
			<path class="st8" d="M106.4,97.3h4.1V83.4l8.9,13.9h4V76.7h-4v13.9l-8.9-13.9h-4.1V97.3z"/>
		</g>
	</g>
</g>
</svg>
